<svg width="9" height="17" viewBox="0 0 9 17" fill="none" xmlns="http://www.w3.org/2000/svg">
<path d="M0.646447 13.0202L3.97965 16.3534C3.97969 16.3535 3.97974 16.3535 3.97978 16.3536C3.98049 16.3543 3.9812 16.355 3.98191 16.3557C4.07222 16.4449 4.19634 16.5 4.33333 16.5C4.40113 16.5 4.46577 16.4865 4.52472 16.4621C4.58283 16.438 4.63732 16.4026 4.68476 16.3557C4.68547 16.355 4.68618 16.3543 4.68689 16.3536C4.68693 16.3535 4.68698 16.3535 4.68702 16.3534L8.02022 13.0202C8.21548 12.825 8.21548 12.5084 8.02022 12.3131C7.82496 12.1179 7.50838 12.1179 7.31311 12.3131L4.83333 14.7929L4.83333 2.20711L7.31311 4.68689C7.50838 4.88215 7.82496 4.88215 8.02022 4.68689C8.21548 4.49162 8.21548 4.17504 8.02022 3.97978L4.68689 0.646446C4.59002 0.549578 4.46329 0.500766 4.33633 0.500009C4.33533 0.500003 4.33433 0.5 4.33333 0.5C4.33233 0.5 4.33133 0.500003 4.33033 0.500009C4.26363 0.500401 4.20003 0.513853 4.14194 0.537939C4.08297 0.562339 4.02772 0.598508 3.97978 0.646446L0.646447 3.97978C0.451184 4.17504 0.451184 4.49162 0.646447 4.68689C0.841709 4.88215 1.15829 4.88215 1.35355 4.68689L3.83333 2.20711L3.83333 14.7929L1.35355 12.3131C1.15829 12.1179 0.841709 12.1179 0.646447 12.3131C0.451184 12.5084 0.451184 12.825 0.646447 13.0202Z" stroke="#121217" stroke-opacity="0.8" stroke-linecap="round" stroke-linejoin="round"/>
</svg>
