<svg width="35" height="35" viewBox="0 0 35 35" fill="none" xmlns="http://www.w3.org/2000/svg">
<path d="M4.375 10.1949C12.8544 7.11733 22.1457 7.11733 30.625 10.1949" stroke="#D0D0D0" stroke-width="1.5" stroke-linecap="round" stroke-linejoin="round"/>
<path d="M11.6812 8.34115C11.6812 6.79404 12.2957 5.31041 13.3897 4.21644C14.4836 3.12249 15.9674 2.50781 17.5145 2.50781C19.0615 2.50781 20.5454 3.12249 21.6393 4.21644C22.7332 5.31041 23.3479 6.79404 23.3479 8.34115" stroke="#D0D0D0" stroke-width="1.5" stroke-linecap="round" stroke-linejoin="round"/>
<path d="M17.5 18.957V26.2487" stroke="#D0D0D0" stroke-width="1.5" stroke-linecap="round" stroke-linejoin="round"/>
<path d="M27.7082 14.5703L26.7311 26.237C26.5743 27.8135 25.8452 29.2778 24.6815 30.3528C23.5178 31.4278 22.0004 32.0388 20.4165 32.0703H14.5832C12.9993 32.0388 11.4818 31.4278 10.3181 30.3528C9.15445 29.2778 8.42529 27.8135 8.2686 26.237L7.2915 14.5703" stroke="#D0D0D0" stroke-width="1.5" stroke-linecap="round" stroke-linejoin="round"/>
</svg>
