<svg width="35" height="35" viewBox="0 0 35 35" fill="none" xmlns="http://www.w3.org/2000/svg">
<path d="M4.88962 13.0527C5.83971 9.00231 9.00231 5.83971 13.0527 4.88962C15.9779 4.20346 19.0221 4.20346 21.9473 4.88962C25.9977 5.83971 29.1602 9.00231 30.1104 13.0527C30.7965 15.9779 30.7965 19.0221 30.1104 21.9473C29.1602 25.9977 25.9977 29.1602 21.9473 30.1104C19.0221 30.7965 15.9779 30.7965 13.0527 30.1104C9.00231 29.1602 5.83971 25.9977 4.88962 21.9473C4.20346 19.0221 4.20346 15.9779 4.88962 13.0527Z" fill="#F1F1F1" stroke="#121217" stroke-opacity="0.8" stroke-width="2.5"/>
<path d="M13.2052 17.4998C13.2052 18.3053 12.5343 18.9582 11.7068 18.9582C10.8793 18.9582 10.2085 18.3053 10.2085 17.4998C10.2085 16.6944 10.8793 16.0415 11.7068 16.0415C12.5343 16.0415 13.2052 16.6944 13.2052 17.4998Z" fill="#363853"/>
<path d="M18.9985 17.4998C18.9985 18.3053 18.3277 18.9582 17.5002 18.9582C16.6728 18.9582 16.002 18.3053 16.002 17.4998C16.002 16.6944 16.6728 16.0415 17.5002 16.0415C18.3277 16.0415 18.9985 16.6944 18.9985 17.4998Z" fill="#363853"/>
<path d="M24.7915 17.4998C24.7915 18.3053 24.1207 18.9582 23.2932 18.9582C22.4656 18.9582 21.7949 18.3053 21.7949 17.4998C21.7949 16.6944 22.4656 16.0415 23.2932 16.0415C24.1207 16.0415 24.7915 16.6944 24.7915 17.4998Z" fill="#363853"/>
</svg>
