<svg width="25" height="25" viewBox="0 0 25 25" fill="none" xmlns="http://www.w3.org/2000/svg">
<path d="M22.1663 12.4987C22.1663 17.8374 17.8384 22.1654 12.4997 22.1654C7.16092 22.1654 2.83301 17.8374 2.83301 12.4987C2.83301 7.15994 7.16092 2.83203 12.4997 2.83203C17.8384 2.83203 22.1663 7.15995 22.1663 12.4987Z" stroke="#949494" stroke-width="1.5"/>
<path fill-rule="evenodd" clip-rule="evenodd" d="M12.5 7.55078C12.9315 7.55078 13.2812 7.90056 13.2812 8.33203V12.1751L15.6566 14.5505C15.9617 14.8556 15.9617 15.3502 15.6566 15.6553C15.3515 15.9604 14.8569 15.9604 14.5518 15.6553L11.9476 13.0511C11.801 12.9046 11.7188 12.7059 11.7188 12.4987V8.33203C11.7188 7.90056 12.0685 7.55078 12.5 7.55078Z" fill="#949494"/>
</svg>
