<svg width="40" height="40" viewBox="0 0 40 40" fill="none" xmlns="http://www.w3.org/2000/svg">
<path fill-rule="evenodd" clip-rule="evenodd" d="M20 2.0835C19.3097 2.0835 18.75 2.64315 18.75 3.3335V21.6212L15.9491 18.3533C15.4998 17.8292 14.7107 17.7685 14.1865 18.2178C13.6623 18.667 13.6016 19.4562 14.0509 19.9803L19.051 25.8137C19.2883 26.0907 19.6352 26.2502 20 26.2502C20.3648 26.2502 20.7117 26.0907 20.949 25.8137L25.949 19.9803C26.3983 19.4562 26.3377 18.667 25.8135 18.2178C25.2893 17.7685 24.5002 17.8292 24.051 18.3533L21.25 21.6212V3.3335C21.25 2.64315 20.6903 2.0835 20 2.0835Z" fill="#1C274C"/>
<path d="M23.75 15V15.6305C24.9727 15.1995 26.3853 15.4152 27.4403 16.3194C29.0128 17.6673 29.195 20.0347 27.8472 21.6072L22.8472 27.4405C22.1347 28.2717 21.0947 28.75 20 28.75C18.9052 28.75 17.8652 28.2717 17.1527 27.4405L12.1527 21.6072C10.8049 20.0347 10.987 17.6673 12.5595 16.3194C13.6145 15.4152 15.0273 15.1995 16.2499 15.6305V15H13.3333C8.61929 15 6.26228 15 4.79781 16.4645C3.33334 17.929 3.33334 20.286 3.33334 25V26.6667C3.33334 31.3807 3.33334 33.7377 4.79781 35.2022C6.26228 36.6667 8.61929 36.6667 13.3333 36.6667H26.6667C31.3807 36.6667 33.7377 36.6667 35.2022 35.2022C36.6667 33.7377 36.6667 31.3807 36.6667 26.6667V25C36.6667 20.286 36.6667 17.929 35.2022 16.4645C33.7377 15 31.3807 15 26.6667 15H23.75Z" fill="#1C274C"/>
</svg>
