<svg width="40" height="40" viewBox="0 0 40 40" fill="none" xmlns="http://www.w3.org/2000/svg">
<path d="M31.5743 15.3112L24.9077 8.64453M31.5743 15.3112L23.2435 23.6419C22.1457 24.7397 20.8132 25.6064 19.2833 25.8702C17.7387 26.1367 15.8217 26.2254 14.9076 25.3112C13.9934 24.397 14.0821 22.48 14.3485 20.9354C14.6123 19.4055 15.4791 18.073 16.5768 16.9752L24.9077 8.64453M31.5743 15.3112C31.5743 15.3112 36.5742 10.3112 33.2408 6.97786C29.9075 3.64453 24.9077 8.64453 24.9077 8.64453M34.1668 19.9987C34.1668 30.832 30.8335 34.1654 20.0002 34.1654C9.16683 34.1654 5.8335 30.832 5.8335 19.9987C5.8335 9.16536 9.16683 5.83203 20.0002 5.83203" stroke="#D0D0D0" stroke-linecap="round" stroke-linejoin="round"/>
</svg>
