<svg width="30" height="30" viewBox="0 0 30 30" fill="none" xmlns="http://www.w3.org/2000/svg">
<path d="M11.2496 19.5556L17.5034 24.773C17.678 24.9175 17.9138 24.999 18.1597 24.9999C18.2857 25.0018 18.4105 24.9804 18.5254 24.9373C18.6949 24.8774 18.8395 24.7773 18.9412 24.6493C19.0429 24.5213 19.0972 24.3712 19.0973 24.2177V17.2246V10.2315L29.7298 1.3376C29.8599 1.2276 29.948 1.08792 29.9831 0.936177C30.0181 0.784433 29.9985 0.62743 29.9267 0.484979C29.8564 0.34213 29.7369 0.219847 29.5834 0.133542C29.4299 0.0472369 29.2492 0.000770867 29.0641 0L0.935906 0C0.750799 0.000770867 0.570107 0.0472369 0.416601 0.133542C0.263096 0.219847 0.143647 0.34213 0.073308 0.484979C0.00150664 0.62743 -0.0181106 0.784433 0.0169316 0.936177C0.0519738 1.08792 0.140105 1.2276 0.270205 1.3376L10.9402 10.2315V19.0315C10.9583 19.233 11.0692 19.4208 11.2496 19.5556ZM3.19554 1.56445H26.8045L17.4284 9.38669C17.3398 9.45913 17.2693 9.54553 17.221 9.64086C17.1728 9.7362 17.1476 9.83857 17.1471 9.94207V22.3638L12.7779 18.7108V13.7671V9.91078C12.7774 9.80729 12.7522 9.70491 12.7039 9.60957C12.6557 9.51424 12.5852 9.42785 12.4966 9.3554L3.19554 1.56445Z" fill="black"/>
</svg>
