<svg width="40" height="40" viewBox="0 0 40 40" fill="none" xmlns="http://www.w3.org/2000/svg">
<path d="M6.66683 5.3335C5.92816 5.3335 5.3335 5.92816 5.3335 6.66683V17.3335C5.3335 18.0722 5.92816 18.6668 6.66683 18.6668H17.3335C18.0722 18.6668 18.6668 18.0722 18.6668 17.3335V6.66683C18.6668 5.92816 18.0722 5.3335 17.3335 5.3335H6.66683ZM22.6668 5.3335C21.9282 5.3335 21.3335 5.92816 21.3335 6.66683V17.3335C21.3335 18.0722 21.9282 18.6668 22.6668 18.6668H33.3335C34.0722 18.6668 34.6668 18.0722 34.6668 17.3335V6.66683C34.6668 5.92816 34.0722 5.3335 33.3335 5.3335H22.6668ZM6.66683 21.3335C5.92816 21.3335 5.3335 21.9282 5.3335 22.6668V33.3335C5.3335 34.0722 5.92816 34.6668 6.66683 34.6668H17.3335C18.0722 34.6668 18.6668 34.0722 18.6668 33.3335V22.6668C18.6668 21.9282 18.0722 21.3335 17.3335 21.3335H6.66683ZM22.6668 21.3335C21.9282 21.3335 21.3335 21.9282 21.3335 22.6668V33.3335C21.3335 34.0722 21.9282 34.6668 22.6668 34.6668H33.3335C34.0722 34.6668 34.6668 34.0722 34.6668 33.3335V22.6668C34.6668 21.9282 34.0722 21.3335 33.3335 21.3335H22.6668Z" fill="#121217"/>
</svg>
