<svg width="36" height="36" viewBox="0 0 36 36" fill="none" xmlns="http://www.w3.org/2000/svg">
<path d="M34.6163 28.5497C34.6163 29.1497 34.483 29.7663 34.1997 30.3663C33.9163 30.9663 33.5497 31.533 33.0663 32.0663C32.2497 32.9663 31.3497 33.6163 30.333 34.033C29.333 34.4497 28.2497 34.6663 27.083 34.6663C25.383 34.6663 23.5663 34.2663 21.6497 33.4497C19.733 32.633 17.8163 31.533 15.9163 30.1497C13.9997 28.7497 12.183 27.1997 10.4497 25.483C8.73301 23.7497 7.18301 21.933 5.79967 20.033C4.43301 18.133 3.33301 16.233 2.53301 14.3497C1.73301 12.4497 1.33301 10.633 1.33301 8.89967C1.33301 7.76634 1.53301 6.68301 1.93301 5.68301C2.33301 4.66634 2.96634 3.73301 3.84967 2.89967C4.91634 1.84967 6.08301 1.33301 7.31634 1.33301C7.78301 1.33301 8.24967 1.43301 8.66634 1.63301C9.09967 1.83301 9.48301 2.13301 9.78301 2.56634L13.6497 8.01634C13.9497 8.43301 14.1663 8.81634 14.3163 9.18301C14.4663 9.53301 14.5497 9.88301 14.5497 10.1997C14.5497 10.5997 14.433 10.9997 14.1997 11.383C13.983 11.7663 13.6663 12.1663 13.2663 12.5663L11.9997 13.883C11.8163 14.0663 11.733 14.283 11.733 14.5497C11.733 14.683 11.7497 14.7997 11.783 14.933C11.833 15.0663 11.883 15.1663 11.9163 15.2663C12.2163 15.8163 12.733 16.533 13.4663 17.3997C14.2163 18.2663 15.0163 19.1497 15.883 20.033C16.783 20.9163 17.6497 21.733 18.533 22.483C19.3997 23.2163 20.1163 23.7163 20.683 24.0163C20.7663 24.0497 20.8663 24.0997 20.983 24.1497C21.1163 24.1997 21.2497 24.2163 21.3997 24.2163C21.683 24.2163 21.8997 24.1163 22.083 23.933L23.3497 22.683C23.7663 22.2663 24.1663 21.9497 24.5497 21.7497C24.933 21.5163 25.3163 21.3997 25.733 21.3997C26.0497 21.3997 26.383 21.4663 26.7497 21.6163C27.1163 21.7663 27.4997 21.983 27.9163 22.2663L33.433 26.183C33.8663 26.483 34.1663 26.833 34.3497 27.2497C34.5163 27.6663 34.6163 28.083 34.6163 28.5497Z" stroke="#121217" stroke-opacity="0.7" stroke-width="1.5" stroke-miterlimit="10"/>
</svg>
