<svg width="25" height="25" viewBox="0 0 25 25" fill="none" xmlns="http://www.w3.org/2000/svg">
<path d="M15.625 18.75H9.375C9.375 19.5788 9.70424 20.3737 10.2903 20.9597C10.8763 21.5458 11.6712 21.875 12.5 21.875C13.3288 21.875 14.1237 21.5458 14.7097 20.9597C15.2958 20.3737 15.625 19.5788 15.625 18.75Z" stroke="#949494" stroke-width="1.5" stroke-linecap="round" stroke-linejoin="round"/>
<path d="M18.6253 9.37501L18.7503 13.5417L20.1878 14.9792C20.4971 15.288 20.7077 15.6817 20.7931 16.1103C20.8784 16.539 20.8347 16.9833 20.6674 17.387C20.5001 17.7908 20.2167 18.1358 19.8532 18.3785C19.4897 18.6211 19.0624 18.7504 18.6253 18.75H6.37532C5.93827 18.7504 5.51093 18.6211 5.14742 18.3785C4.7839 18.1358 4.50055 17.7908 4.33325 17.387C4.16594 16.9833 4.12221 16.539 4.20758 16.1103C4.29295 15.6817 4.50359 15.288 4.81282 14.9792L6.25032 13.5417V9.37501C6.25032 7.71741 6.9088 6.1277 8.0809 4.95559C9.25301 3.78349 10.8427 3.12501 12.5003 3.12501C13.5483 3.12297 18.0558 3.12501 18.6253 9.37501Z" stroke="#949494" stroke-width="1.5" stroke-linecap="round" stroke-linejoin="round"/>
</svg>
