<svg width="40" height="40" viewBox="0 0 40 40" fill="none" xmlns="http://www.w3.org/2000/svg">
<g clip-path="url(#clip0_251_515)">
<path d="M30.3336 5.8125H0.3125V31.2503H30.3336V5.8125Z" fill="#FBFDFF"/>
<path d="M30.021 6.125V30.9372H0.624997V6.125H30.021ZM30.646 5.5H0V31.5622H30.646V5.5Z" fill="#121217" fill-opacity="0.7"/>
<path d="M26.6153 18.2188H4.03027V18.8437H26.6153V18.2188Z" fill="#121217" fill-opacity="0.7"/>
<path d="M26.6153 14.4082H4.03027V15.0332H26.6153V14.4082Z" fill="#121217" fill-opacity="0.7"/>
<path d="M26.6153 10.5977H4.03027V11.2227H26.6153V10.5977Z" fill="#121217" fill-opacity="0.7"/>
<path d="M26.6153 25.8398H4.03027V26.4648H26.6153V25.8398Z" fill="#121217" fill-opacity="0.7"/>
<path d="M26.6153 22.0293H4.03027V22.6543H26.6153V22.0293Z" fill="#121217" fill-opacity="0.7"/>
<path d="M31.4096 24.7066L30.1621 25.9541L31.6928 27.4847L32.9403 26.2372L31.4096 24.7066Z" fill="#E21B1B"/>
<path d="M33.8458 25.3329L30.8125 28.3662L32.5698 30.1235L35.6031 27.0902L33.8458 25.3329Z" fill="#121217" fill-opacity="0.7"/>
<path d="M35.6056 27.0731L32.5723 30.1064L36.9662 34.5003L39.9995 31.467L35.6056 27.0731Z" fill="#121217" fill-opacity="0.7"/>
<path d="M25.085 27.6905C30.2886 27.6905 34.5069 23.4722 34.5069 18.2686C34.5069 13.065 30.2886 8.84668 25.085 8.84668C19.8814 8.84668 15.6631 13.065 15.6631 18.2686C15.6631 23.4722 19.8814 27.6905 25.085 27.6905Z" fill="#121217" fill-opacity="0.7"/>
<path d="M25.0852 26.2075C29.4696 26.2075 33.0239 22.6532 33.0239 18.2688C33.0239 13.8844 29.4696 10.3301 25.0852 10.3301C20.7008 10.3301 17.1465 13.8844 17.1465 18.2688C17.1465 22.6532 20.7008 26.2075 25.0852 26.2075Z" fill="#EFEFEF"/>
<path d="M21.875 14.375H24.2187M24.2187 14.375C25.5132 14.375 26.5625 15.4243 26.5625 16.7187C26.5625 18.0132 25.5132 19.0625 24.2187 19.0625H21.875L25.5208 22.7083M24.2187 14.375H28.125M21.875 16.7187H28.125" stroke="#121217" stroke-opacity="0.7" stroke-width="2" stroke-linecap="round" stroke-linejoin="round"/>
</g>
<defs>
<clipPath id="clip0_251_515">
<rect width="40" height="40" fill="white"/>
</clipPath>
</defs>
</svg>
