<svg width="34" height="34" viewBox="0 0 34 34" fill="none" xmlns="http://www.w3.org/2000/svg">
<g clip-path="url(#clip0_261_7314)">
<path d="M26.2609 27.7186C23.6903 29.9461 20.4016 31.1701 17.0002 31.1654C9.17591 31.1654 2.8335 24.8229 2.8335 16.9987C2.8335 9.17445 9.17591 2.83203 17.0002 2.83203C24.8244 2.83203 31.1668 9.17445 31.1668 16.9987C31.1668 20.0247 30.2177 22.8297 28.6027 25.1304L24.0835 16.9987H28.3335C28.3333 14.3867 27.4308 11.8549 25.7788 9.83162C24.1267 7.80838 21.8265 6.41789 19.2673 5.89537C16.7081 5.37285 14.0469 5.75039 11.734 6.96412C9.42103 8.17784 7.59834 10.1532 6.57424 12.5561C5.55013 14.9591 5.38747 17.6419 6.11378 20.151C6.84008 22.66 8.41076 24.8411 10.5601 26.3254C12.7095 27.8097 15.3055 28.5059 17.9092 28.2964C20.5128 28.0869 22.9641 26.9845 24.8485 25.1757L26.2609 27.7186Z" fill="#D0D0D0"/>
</g>
<defs>
<clipPath id="clip0_261_7314">
<rect width="34" height="34" fill="white"/>
</clipPath>
</defs>
</svg>
