<svg width="40" height="40" viewBox="0 0 40 40" fill="none" xmlns="http://www.w3.org/2000/svg">
<g clip-path="url(#clip0_84_9079)">
<path d="M38.75 0H1.25C0.918479 0 0.600537 0.131696 0.366117 0.366117C0.131696 0.600537 0 0.918479 0 1.25L0 9.5875C0 9.91902 0.131696 10.237 0.366117 10.4714C0.600537 10.7058 0.918479 10.8375 1.25 10.8375H38.75C39.0815 10.8375 39.3995 10.7058 39.6339 10.4714C39.8683 10.237 40 9.91902 40 9.5875V1.25C40 0.918479 39.8683 0.600537 39.6339 0.366117C39.3995 0.131696 39.0815 0 38.75 0ZM35.8375 4.5875H37.5V6.25H35.8375V4.5875ZM2.5 2.5H33.6625C33.4541 2.72925 33.3383 3.02771 33.3375 3.3375V7.5C33.3383 7.80979 33.4541 8.10825 33.6625 8.3375H2.5V2.5Z" fill="black"/>
<path d="M38.75 14.5874H1.25C0.918479 14.5874 0.600537 14.7191 0.366117 14.9535C0.131696 15.1879 0 15.5059 0 15.8374L0 24.1624C0 24.4939 0.131696 24.8119 0.366117 25.0463C0.600537 25.2807 0.918479 25.4124 1.25 25.4124H38.75C39.0815 25.4124 39.3995 25.2807 39.6339 25.0463C39.8683 24.8119 40 24.4939 40 24.1624V15.8374C40 15.5059 39.8683 15.1879 39.6339 14.9535C39.3995 14.7191 39.0815 14.5874 38.75 14.5874ZM23.3375 19.1624H37.5V20.8374H23.3375V19.1624ZM2.5 17.0874H21.1625C20.957 17.3134 20.8414 17.6069 20.8375 17.9124V22.0874C20.8414 22.3929 20.957 22.6864 21.1625 22.9124H2.5V17.0874Z" fill="black"/>
<path d="M38.75 29.1626H1.25C0.918479 29.1626 0.600537 29.2943 0.366117 29.5287C0.131696 29.7631 0 30.0811 0 30.4126L0 38.7501C0 39.0816 0.131696 39.3996 0.366117 39.634C0.600537 39.8684 0.918479 40.0001 1.25 40.0001H38.75C39.0815 40.0001 39.3995 39.8684 39.6339 39.634C39.8683 39.3996 40 39.0816 40 38.7501V30.4126C40 30.0811 39.8683 29.7631 39.6339 29.5287C39.3995 29.2943 39.0815 29.1626 38.75 29.1626ZM35.8375 33.7501H37.5V35.4126H35.8375V33.7501ZM2.5 31.6626H33.6625C33.4541 31.8918 33.3383 32.1903 33.3375 32.5001V36.6626C33.3383 36.9724 33.4541 37.2709 33.6625 37.5001H2.5V31.6626Z" fill="black"/>
</g>
<defs>
<clipPath id="clip0_84_9079">
<rect width="40" height="40" fill="white"/>
</clipPath>
</defs>
</svg>
