<svg width="30" height="30" viewBox="0 0 30 30" fill="none" xmlns="http://www.w3.org/2000/svg">
<path d="M18.894 15.5773L18.4607 14.8655C18.1802 15.0363 18.0262 15.3558 18.0673 15.6817C18.1083 16.0073 18.3368 16.2787 18.651 16.3745L18.894 15.5773ZM11.1055 15.5773L11.3486 16.3745C11.6627 16.2787 11.8912 16.0073 11.9323 15.6817C11.9733 15.3558 11.8193 15.0363 11.5388 14.8655L11.1055 15.5773ZM21.6665 9.16634C21.6665 11.5797 20.3847 13.6943 18.4607 14.8655L19.3273 16.2892C21.7273 14.8282 23.3332 12.1852 23.3332 9.16634H21.6665ZM14.9998 2.49967C18.6817 2.49967 21.6665 5.48444 21.6665 9.16634H23.3332C23.3332 4.56397 19.6022 0.833008 14.9998 0.833008V2.49967ZM8.33311 9.16634C8.33311 5.48444 11.3179 2.49967 14.9998 2.49967V0.833008C10.3974 0.833008 6.66645 4.56397 6.66645 9.16634H8.33311ZM11.5388 14.8655C9.61491 13.6943 8.33311 11.5797 8.33311 9.16634H6.66645C6.66645 12.1852 8.27221 14.8282 10.6722 16.2892L11.5388 14.8655ZM10.8625 14.7802C5.60123 16.3845 1.63911 20.967 0.942245 26.5667L2.59615 26.7725C3.21048 21.836 6.7062 17.79 11.3486 16.3745L10.8625 14.7802ZM0.942245 26.5667C0.758062 28.0467 1.9841 29.1663 3.33311 29.1663V27.4997C2.8412 27.4997 2.55298 27.1195 2.59615 26.7725L0.942245 26.5667ZM3.33311 29.1663H26.6665V27.4997H3.33311V29.1663ZM26.6665 29.1663C28.0155 29.1663 29.2415 28.0467 29.0573 26.5667L27.4033 26.7725C27.4465 27.1195 27.1583 27.4997 26.6665 27.4997V29.1663ZM29.0573 26.5667C28.3605 20.967 24.3983 16.3845 19.137 14.7802L18.651 16.3745C23.2933 17.79 26.789 21.836 27.4033 26.7725L29.0573 26.5667Z" fill="#121217" fill-opacity="0.7"/>
</svg>
