<svg width="40" height="26" viewBox="0 0 40 26" fill="none" xmlns="http://www.w3.org/2000/svg">
<path d="M31.667 16.333C35.3488 16.333 38.3337 19.6663 38.3337 22.1663C38.3337 23.547 37.2143 24.6663 35.8337 24.6663H35.0003M28.3337 11.333C31.0952 11.333 33.3337 9.09442 33.3337 6.33301C33.3337 3.57159 31.0952 1.33301 28.3337 1.33301M8.33366 16.333C4.65176 16.333 1.66699 19.6663 1.66699 22.1663C1.66699 23.547 2.78628 24.6663 4.16699 24.6663H5.00033M11.667 11.333C8.90557 11.333 6.66699 9.09442 6.66699 6.33301C6.66699 3.57159 8.90557 1.33301 11.667 1.33301M27.5003 24.6663H12.5003C11.1196 24.6663 10.0003 23.547 10.0003 22.1663C10.0003 17.9997 15.0003 16.333 20.0003 16.333C25.0003 16.333 30.0003 17.9997 30.0003 22.1663C30.0003 23.547 28.881 24.6663 27.5003 24.6663ZM25.0003 6.33301C25.0003 9.09442 22.7618 11.333 20.0003 11.333C17.2388 11.333 15.0003 9.09442 15.0003 6.33301C15.0003 3.57159 17.2388 1.33301 20.0003 1.33301C22.7618 1.33301 25.0003 3.57159 25.0003 6.33301Z" stroke="#121217" stroke-opacity="0.7" stroke-width="2" stroke-linecap="round" stroke-linejoin="round"/>
</svg>
