<svg width="199" height="28" viewBox="0 0 199 28" fill="none" xmlns="http://www.w3.org/2000/svg">
<path d="M5.83984 1.40625V27H0.109375V1.40625H5.83984ZM21.1328 1.40625L11.1133 14.2031L5.27734 20.5312L4.24023 15.2051L8.08984 9.68555L14.1016 1.40625H21.1328ZM14.4883 27L7.42188 15.3105L11.7812 11.918L21.2734 27H14.4883ZM32.8574 22.4648V14.3086C32.8574 13.7344 32.7695 13.2422 32.5938 12.832C32.418 12.4219 32.1426 12.0996 31.7676 11.8652C31.3926 11.6309 30.9062 11.5137 30.3086 11.5137C29.8047 11.5137 29.3652 11.6016 28.9902 11.7773C28.627 11.9531 28.3457 12.2051 28.1465 12.5332C27.959 12.8613 27.8652 13.2656 27.8652 13.7461H22.3809C22.3809 12.8906 22.5742 12.0938 22.9609 11.3555C23.3477 10.6172 23.8984 9.9668 24.6133 9.4043C25.3398 8.8418 26.207 8.4082 27.2148 8.10352C28.2227 7.78711 29.3535 7.62891 30.6074 7.62891C32.0957 7.62891 33.4199 7.88086 34.5801 8.38477C35.752 8.87695 36.6777 9.62109 37.3574 10.6172C38.0371 11.6016 38.377 12.8438 38.377 14.3438V22.3066C38.377 23.4551 38.4414 24.3574 38.5703 25.0137C38.7109 25.6582 38.9102 26.2207 39.168 26.7012V27H33.6309C33.373 26.4492 33.1797 25.7695 33.0508 24.9609C32.9219 24.1406 32.8574 23.3086 32.8574 22.4648ZM33.543 15.3984L33.5781 18.4219H30.8535C30.2441 18.4219 29.7168 18.498 29.2715 18.6504C28.8379 18.8027 28.4863 19.0137 28.2168 19.2832C27.9473 19.541 27.748 19.8457 27.6191 20.1973C27.502 20.5371 27.4434 20.9121 27.4434 21.3223C27.4434 21.709 27.5371 22.0605 27.7246 22.377C27.9121 22.6816 28.1699 22.9219 28.498 23.0977C28.8262 23.2734 29.207 23.3613 29.6406 23.3613C30.3555 23.3613 30.9648 23.2207 31.4688 22.9395C31.9844 22.6582 32.3828 22.3184 32.6641 21.9199C32.9453 21.5098 33.0859 21.1289 33.0859 20.7773L34.4043 23.0625C34.1934 23.5312 33.9355 24.0176 33.6309 24.5215C33.3262 25.0137 32.9395 25.4766 32.4707 25.9102C32.002 26.332 31.4336 26.6777 30.7656 26.9473C30.1094 27.2168 29.3184 27.3516 28.3926 27.3516C27.1973 27.3516 26.1133 27.1113 25.1406 26.6309C24.168 26.1387 23.3887 25.4648 22.8027 24.6094C22.2285 23.7539 21.9414 22.7695 21.9414 21.6562C21.9414 20.6602 22.123 19.7754 22.4863 19.002C22.8496 18.2285 23.3945 17.5723 24.1211 17.0332C24.8594 16.4941 25.7852 16.0898 26.8984 15.8203C28.0117 15.5391 29.3125 15.3984 30.8008 15.3984H33.543ZM47.4824 12.4102V27H41.998V7.98047H47.1484L47.4824 12.4102ZM53.1602 7.83984L53.0723 12.9551C52.8379 12.9199 52.5332 12.8906 52.1582 12.8672C51.7832 12.832 51.4609 12.8145 51.1914 12.8145C50.4883 12.8145 49.8789 12.9023 49.3633 13.0781C48.8594 13.2422 48.4375 13.4883 48.0977 13.8164C47.7695 14.1445 47.5234 14.5547 47.3594 15.0469C47.1953 15.5273 47.1133 16.084 47.1133 16.7168L46.0762 16.207C46.0762 14.9531 46.1992 13.8047 46.4453 12.7617C46.6914 11.7188 47.0488 10.8164 47.5176 10.0547C47.9863 9.28125 48.5605 8.68359 49.2402 8.26172C49.9199 7.83984 50.6934 7.62891 51.5605 7.62891C51.8418 7.62891 52.1289 7.64648 52.4219 7.68164C52.7148 7.7168 52.9609 7.76953 53.1602 7.83984ZM60.9121 11.9707V27H55.4277V7.98047H60.5781L60.9121 11.9707ZM60.209 16.8223L58.8203 16.8574C58.8203 15.5215 58.9785 14.2969 59.2949 13.1836C59.623 12.0586 60.0977 11.0801 60.7188 10.248C61.3398 9.41602 62.1074 8.77148 63.0215 8.31445C63.9473 7.85742 65.0137 7.62891 66.2207 7.62891C67.0645 7.62891 67.832 7.75781 68.5234 8.01562C69.2148 8.26172 69.8066 8.6543 70.2988 9.19336C70.8027 9.7207 71.1895 10.4121 71.459 11.2676C71.7285 12.1113 71.8633 13.125 71.8633 14.3086V27H66.3789V14.9766C66.3789 14.1328 66.2734 13.4941 66.0625 13.0605C65.8633 12.6152 65.5703 12.3105 65.1836 12.1465C64.7969 11.9824 64.334 11.9004 63.7949 11.9004C63.209 11.9004 62.6875 12.0293 62.2305 12.2871C61.7852 12.5332 61.4102 12.8789 61.1055 13.3242C60.8008 13.7695 60.5723 14.291 60.4199 14.8887C60.2793 15.4863 60.209 16.1309 60.209 16.8223ZM71.3008 16.541L69.5605 16.6816C69.5605 15.3926 69.7129 14.1973 70.0176 13.0957C70.3223 11.9941 70.7793 11.0391 71.3887 10.2305C71.998 9.41016 72.7539 8.77148 73.6562 8.31445C74.5703 7.85742 75.6309 7.62891 76.8379 7.62891C77.7285 7.62891 78.5371 7.75781 79.2637 8.01562C80.002 8.27344 80.6348 8.68945 81.1621 9.26367C81.7012 9.83789 82.1172 10.5938 82.4102 11.5312C82.7031 12.457 82.8496 13.5938 82.8496 14.9414V27H77.3301V14.9414C77.3301 14.1094 77.2246 13.4766 77.0137 13.043C76.8145 12.6094 76.5215 12.3105 76.1348 12.1465C75.7598 11.9824 75.3086 11.9004 74.7812 11.9004C74.1953 11.9004 73.6855 12.0234 73.252 12.2695C72.8184 12.5039 72.4551 12.832 72.1621 13.2539C71.8691 13.6641 71.6523 14.1504 71.5117 14.7129C71.3711 15.2754 71.3008 15.8848 71.3008 16.541ZM96.5957 22.4648V14.3086C96.5957 13.7344 96.5078 13.2422 96.332 12.832C96.1562 12.4219 95.8809 12.0996 95.5059 11.8652C95.1309 11.6309 94.6445 11.5137 94.0469 11.5137C93.543 11.5137 93.1035 11.6016 92.7285 11.7773C92.3652 11.9531 92.084 12.2051 91.8848 12.5332C91.6973 12.8613 91.6035 13.2656 91.6035 13.7461H86.1191C86.1191 12.8906 86.3125 12.0938 86.6992 11.3555C87.0859 10.6172 87.6367 9.9668 88.3516 9.4043C89.0781 8.8418 89.9453 8.4082 90.9531 8.10352C91.9609 7.78711 93.0918 7.62891 94.3457 7.62891C95.834 7.62891 97.1582 7.88086 98.3184 8.38477C99.4902 8.87695 100.416 9.62109 101.096 10.6172C101.775 11.6016 102.115 12.8438 102.115 14.3438V22.3066C102.115 23.4551 102.18 24.3574 102.309 25.0137C102.449 25.6582 102.648 26.2207 102.906 26.7012V27H97.3691C97.1113 26.4492 96.918 25.7695 96.7891 24.9609C96.6602 24.1406 96.5957 23.3086 96.5957 22.4648ZM97.2812 15.3984L97.3164 18.4219H94.5918C93.9824 18.4219 93.4551 18.498 93.0098 18.6504C92.5762 18.8027 92.2246 19.0137 91.9551 19.2832C91.6855 19.541 91.4863 19.8457 91.3574 20.1973C91.2402 20.5371 91.1816 20.9121 91.1816 21.3223C91.1816 21.709 91.2754 22.0605 91.4629 22.377C91.6504 22.6816 91.9082 22.9219 92.2363 23.0977C92.5645 23.2734 92.9453 23.3613 93.3789 23.3613C94.0938 23.3613 94.7031 23.2207 95.207 22.9395C95.7227 22.6582 96.1211 22.3184 96.4023 21.9199C96.6836 21.5098 96.8242 21.1289 96.8242 20.7773L98.1426 23.0625C97.9316 23.5312 97.6738 24.0176 97.3691 24.5215C97.0645 25.0137 96.6777 25.4766 96.209 25.9102C95.7402 26.332 95.1719 26.6777 94.5039 26.9473C93.8477 27.2168 93.0566 27.3516 92.1309 27.3516C90.9355 27.3516 89.8516 27.1113 88.8789 26.6309C87.9062 26.1387 87.127 25.4648 86.541 24.6094C85.9668 23.7539 85.6797 22.7695 85.6797 21.6562C85.6797 20.6602 85.8613 19.7754 86.2246 19.002C86.5879 18.2285 87.1328 17.5723 87.8594 17.0332C88.5977 16.4941 89.5234 16.0898 90.6367 15.8203C91.75 15.5391 93.0508 15.3984 94.5391 15.3984H97.2812ZM116.793 22.7461V0H122.312V27H117.355L116.793 22.7461ZM104.945 17.7188V17.3496C104.945 15.9082 105.104 14.5957 105.42 13.4121C105.748 12.2168 106.223 11.1914 106.844 10.3359C107.477 9.46875 108.256 8.80078 109.182 8.33203C110.107 7.86328 111.168 7.62891 112.363 7.62891C113.465 7.62891 114.426 7.875 115.246 8.36719C116.066 8.84766 116.764 9.52734 117.338 10.4062C117.924 11.2734 118.398 12.2988 118.762 13.4824C119.125 14.6543 119.4 15.9258 119.588 17.2969V17.9297C119.412 19.2422 119.137 20.4668 118.762 21.6035C118.398 22.7402 117.924 23.7422 117.338 24.6094C116.764 25.4648 116.061 26.1387 115.229 26.6309C114.408 27.1113 113.441 27.3516 112.328 27.3516C111.133 27.3516 110.072 27.1113 109.146 26.6309C108.232 26.1504 107.465 25.4766 106.844 24.6094C106.223 23.7422 105.748 22.7227 105.42 21.5508C105.104 20.3789 104.945 19.1016 104.945 17.7188ZM110.43 17.3496V17.7188C110.43 18.4688 110.482 19.166 110.588 19.8105C110.705 20.4551 110.893 21.0234 111.15 21.5156C111.408 22.0078 111.748 22.3945 112.17 22.6758C112.592 22.9453 113.107 23.0801 113.717 23.0801C114.537 23.0801 115.211 22.8926 115.738 22.5176C116.266 22.1309 116.664 21.5977 116.934 20.918C117.203 20.2383 117.344 19.4473 117.355 18.5449V16.6992C117.355 15.9492 117.279 15.2754 117.127 14.6777C116.975 14.0801 116.746 13.5762 116.441 13.166C116.148 12.7559 115.779 12.4453 115.334 12.2344C114.889 12.0117 114.361 11.9004 113.752 11.9004C113.154 11.9004 112.645 12.041 112.223 12.3223C111.801 12.5918 111.455 12.9727 111.186 13.4648C110.928 13.957 110.734 14.5371 110.605 15.2051C110.488 15.8613 110.43 16.5762 110.43 17.3496ZM134.934 27.3516C133.422 27.3516 132.068 27.1113 130.873 26.6309C129.678 26.1504 128.664 25.4883 127.832 24.6445C127.012 23.7891 126.385 22.8047 125.951 21.6914C125.518 20.5781 125.301 19.3887 125.301 18.123V17.4551C125.301 16.0371 125.5 14.7305 125.898 13.5352C126.297 12.3398 126.877 11.3027 127.639 10.4238C128.412 9.5332 129.361 8.84766 130.486 8.36719C131.611 7.875 132.895 7.62891 134.336 7.62891C135.684 7.62891 136.885 7.85156 137.939 8.29688C138.994 8.73047 139.885 9.35742 140.611 10.1777C141.338 10.9863 141.889 11.9648 142.264 13.1133C142.65 14.25 142.844 15.5273 142.844 16.9453V19.1953H127.516V15.6621H137.465V15.2402C137.465 14.5723 137.342 13.9863 137.096 13.4824C136.861 12.9785 136.51 12.5918 136.041 12.3223C135.584 12.041 135.004 11.9004 134.301 11.9004C133.633 11.9004 133.076 12.041 132.631 12.3223C132.186 12.6035 131.828 13.002 131.559 13.5176C131.301 14.0215 131.113 14.6133 130.996 15.293C130.879 15.9609 130.82 16.6816 130.82 17.4551V18.123C130.82 18.8613 130.92 19.5352 131.119 20.1445C131.318 20.7539 131.611 21.2754 131.998 21.709C132.385 22.1426 132.854 22.4824 133.404 22.7285C133.955 22.9746 134.582 23.0977 135.285 23.0977C136.152 23.0977 136.979 22.9336 137.764 22.6055C138.549 22.2656 139.229 21.7383 139.803 21.0234L142.369 23.959C141.982 24.5215 141.438 25.0664 140.734 25.5938C140.043 26.1094 139.211 26.5312 138.238 26.8594C137.266 27.1875 136.164 27.3516 134.934 27.3516ZM151.932 23.1152L155.904 7.98047H161.67L155.359 27H151.896L151.932 23.1152ZM149.365 7.98047L153.32 23.1328L153.355 27H149.893L143.582 7.98047H149.365ZM161.213 24.3984C161.213 23.6016 161.494 22.9336 162.057 22.3945C162.631 21.8555 163.375 21.5859 164.289 21.5859C165.215 21.5859 165.953 21.8555 166.504 22.3945C167.066 22.9336 167.348 23.6016 167.348 24.3984C167.348 25.1836 167.066 25.8457 166.504 26.3848C165.953 26.9238 165.215 27.1934 164.289 27.1934C163.375 27.1934 162.631 26.9238 162.057 26.3848C161.494 25.8457 161.213 25.1836 161.213 24.3984ZM177.385 7.98047V27H171.883V7.98047H177.385ZM171.549 3.05859C171.549 2.26172 171.83 1.61133 172.393 1.10742C172.955 0.591797 173.693 0.333984 174.607 0.333984C175.521 0.333984 176.26 0.591797 176.822 1.10742C177.396 1.61133 177.684 2.26172 177.684 3.05859C177.684 3.84375 177.396 4.49414 176.822 5.00977C176.26 5.51367 175.521 5.76562 174.607 5.76562C173.693 5.76562 172.955 5.51367 172.393 5.00977C171.83 4.49414 171.549 3.84375 171.549 3.05859ZM186.719 12.041V27H181.217V7.98047H186.385L186.719 12.041ZM185.998 16.8223L184.627 16.8574C184.627 15.4277 184.803 14.1445 185.154 13.0078C185.506 11.8711 186.004 10.9043 186.648 10.1074C187.305 9.29883 188.084 8.68359 188.986 8.26172C189.9 7.83984 190.908 7.62891 192.01 7.62891C192.9 7.62891 193.715 7.75781 194.453 8.01562C195.191 8.27344 195.824 8.68945 196.352 9.26367C196.891 9.82617 197.301 10.5762 197.582 11.5137C197.863 12.4395 198.004 13.582 198.004 14.9414V27H192.484V14.9238C192.484 14.127 192.373 13.5117 192.15 13.0781C191.928 12.6445 191.6 12.3398 191.166 12.1641C190.744 11.9883 190.229 11.9004 189.619 11.9004C188.975 11.9004 188.424 12.0293 187.967 12.2871C187.51 12.5332 187.135 12.8789 186.842 13.3242C186.549 13.7695 186.332 14.291 186.191 14.8887C186.062 15.4863 185.998 16.1309 185.998 16.8223Z" fill="#181725"/>
</svg>
